<?xml version="1.0" encoding="UTF-8" standalone="no"?>
<svg
   viewBox="0 0 512 512"
   role="img"
   aria-labelledby="title desc"
   version="1.1"
   id="svg4"
   sodipodi:docname="manfran_whatsapp_icon.svg"
   inkscape:version="1.4.2 (f4327f4, 2025-05-13)"
   xmlns:inkscape="http://www.inkscape.org/namespaces/inkscape"
   xmlns:sodipodi="http://sodipodi.sourceforge.net/DTD/sodipodi-0.dtd"
   xmlns="http://www.w3.org/2000/svg"
   xmlns:svg="http://www.w3.org/2000/svg">
  <sodipodi:namedview
     id="namedview4"
     pagecolor="#ffffff"
     bordercolor="#999999"
     borderopacity="1"
     inkscape:showpageshadow="2"
     inkscape:pageopacity="0"
     inkscape:pagecheckerboard="0"
     inkscape:deskcolor="#d1d1d1"
     inkscape:zoom="0.30615234"
     inkscape:cx="-414.82616"
     inkscape:cy="259.67464"
     inkscape:window-width="1600"
     inkscape:window-height="829"
     inkscape:window-x="-8"
     inkscape:window-y="-8"
     inkscape:window-maximized="1"
     inkscape:current-layer="svg4" />
  <title
     id="title">MANFRAN WhatsApp Icon</title>
  <desc
     id="desc">WhatsApp-style icon adapted to MANFRAN brand colors: MANFRAN blue, charcoal, and white.</desc>
  <defs
     id="defs1">
    <clipPath
       id="circleClip">
      <circle
         cx="256"
         cy="256"
         r="240"
         id="circle1" />
    </clipPath>
    <filter
       id="softShadow"
       x="0"
       y="0"
       width="1"
       height="1">
      <feDropShadow
         dx="0"
         dy="8"
         stdDeviation="12"
         flood-color="#1A1A1A"
         flood-opacity="0.18" />
    </filter>
  </defs>
  <!-- Transparent canvas. Main MANFRAN brand circle -->
  <circle
     cx="256"
     cy="256"
     r="240"
     fill="#00A0D8"
     filter="url(#softShadow)"
     id="circle2" />
  <!-- Subtle MANFRAN charcoal diagonal depth, clipped to the icon circle -->
  <g
     clip-path="url(#circleClip)"
     id="g2">
    <path
       d="M512 0 0 512h512V0Z"
       fill="#1A1A1A"
       opacity="0.16"
       id="path2" />
  </g>
  <!-- WhatsApp chat outline -->
  <!-- WhatsApp handset mark -->
  <g
     id="g4"
     transform="matrix(0.9340288,0,0,0.9340288,-2.794333,38.161644)">
    <path
       d="m 278.99208,89.713712 c -79.99982,0 -144.99422,63.424058 -144.99422,141.679058 0,25.73604 7.15375,50.94863 20.67607,72.84607 l -24.51466,72.49711 75.63777,-23.64226 c 21.98469,12.91164 47.11004,19.71642 73.19504,19.71642 79.99981,0 144.99421,-63.42406 144.99421,-141.67906 0,-78.255 -64.9944,-141.417338 -144.99421,-141.417338 z"
       fill="none"
       stroke="#ffffff"
       stroke-width="28"
       stroke-linecap="round"
       stroke-linejoin="round"
       id="path3" />
    <path
       d="m 352.62331,274.66421 c -4.10032,-2.00654 -24.25294,-11.95199 -28.00429,-13.34784 -3.75136,-1.39585 -6.45582,-2.00654 -9.16029,2.00654 -2.70446,4.10031 -10.46889,13.34784 -12.8244,16.0523 -2.3555,2.70447 -4.711,3.05343 -8.81132,1.04689 -4.10032,-2.00653 -17.18644,-6.36858 -32.7153,-20.15262 -12.03923,-10.73062 -20.23986,-23.99122 -22.59537,-28.09154 -2.3555,-4.10032 -0.26172,-6.28134 1.74482,-8.28788 1.83206,-1.83205 4.10032,-4.711 6.10686,-7.15374 2.00654,-2.3555 2.70446,-4.10032 4.10031,-6.80478 1.39586,-2.70447 0.69793,-5.05997 -0.34896,-7.15375 -1.04689,-2.00654 -9.16028,-22.15916 -12.56267,-30.3598 -3.31515,-7.93891 -6.71755,-6.89202 -9.16029,-6.97926 -2.3555,-0.0872 -5.05996,-0.17448 -7.76443,-0.17448 -2.70446,0 -7.15375,1.04689 -10.9051,5.05996 -3.75135,4.10032 -14.30749,13.95853 -14.30749,34.11116 0,20.15262 14.65645,39.60732 16.75023,42.31178 2.00654,2.70447 28.87671,44.14385 69.96713,61.85373 9.77096,4.18756 17.36091,6.71754 23.29329,8.63684 9.77097,3.14067 18.66953,2.70447 25.73604,1.65758 7.85167,-1.13413 24.25294,-9.94545 27.65533,-19.4547 3.40239,-9.50925 3.40239,-17.70988 2.3555,-19.4547 -1.04689,-1.83206 -3.75135,-2.87895 -7.85167,-4.88549 z"
       fill="#ffffff"
       id="path4"
       style="stroke-width:0.872408" />
  </g>
</svg>
