<svg fill="none" height="71" viewBox="0 0 234 71" width="234" xmlns="http://www.w3.org/2000/svg"><path clip-rule="evenodd" d="M104.643 41.1632C101.757 41.1632 99.4021 38.9106 99.4021 36.1587C99.4021 30.9594 103.302 31.1725 102.764 27.0143C101.905 24.3477 98.6172 23.8972 95.1936 23.8972C91.6897 23.8972 88.8408 21.1757 88.8408 17.8212C88.8408 14.4849 91.6897 11.7574 95.1936 11.7574C95.5521 11.7574 95.9105 11.7756 96.2442 11.8365C95.6262 10.7406 95.2678 9.48039 95.2678 8.12882C95.2678 3.81231 98.9509 0.299438 103.45 0.299438C118.485 0.299438 115.846 41.1693 104.636 41.1693L104.643 41.1632Z" fill="#FF77A8" fill-rule="evenodd"></path><path clip-rule="evenodd" d="M125.635 41.1571C128.521 41.1571 130.869 38.8984 130.869 36.1526C130.869 30.9534 126.964 31.1725 127.501 27.0082C128.354 24.3416 131.642 23.885 135.09 23.885C138.576 23.885 141.425 21.1575 141.425 17.8029C141.425 14.4483 138.576 11.7391 135.09 11.7391C134.707 11.7391 134.373 11.7574 134.015 11.8183C134.633 10.7224 134.991 9.46214 134.991 8.11057C134.991 3.79406 131.302 0.281189 126.803 0.281189C111.786 0.281189 114.444 41.1571 125.641 41.151L125.635 41.1571Z" fill="#FF77A8" fill-rule="evenodd"></path><path d="M231.259 61.7715C231.902 61.7715 232.495 62.0333 232.916 62.4473C233.336 62.8613 233.602 63.4397 233.602 64.0729C233.602 64.7121 233.336 65.2905 232.916 65.7045C232.495 66.1185 231.908 66.3803 231.266 66.3803C230.623 66.3803 230.036 66.1246 229.616 65.7045C229.189 65.2905 228.93 64.7121 228.93 64.079C228.93 63.4458 229.189 62.8613 229.616 62.4473C230.036 62.0333 230.623 61.7776 231.266 61.7715H231.259ZM231.259 62.3864C230.784 62.3864 230.357 62.5752 230.048 62.8796C229.733 63.184 229.541 63.6102 229.541 64.0729V64.085C229.541 64.5477 229.733 64.9678 230.048 65.2783C230.357 65.5827 230.79 65.7715 231.259 65.7715C231.735 65.7715 232.162 65.5827 232.471 65.2783C232.78 64.9739 232.971 64.5477 232.971 64.085V64.079C232.971 63.6102 232.78 63.1901 232.465 62.8857C232.156 62.5813 231.723 62.3925 231.253 62.3925L231.259 62.3864Z" fill="#FF77A8"></path><path d="M230.401 65.0957V62.9588H231.321C231.55 62.9588 231.717 62.9771 231.822 63.0197C231.927 63.0562 232.007 63.1293 232.075 63.2206C232.137 63.318 232.168 63.4276 232.168 63.5554C232.168 63.7137 232.119 63.8477 232.026 63.9512C231.927 64.0547 231.785 64.1216 231.6 64.1521C231.692 64.2069 231.773 64.2678 231.834 64.3286C231.896 64.3956 231.977 64.5113 232.082 64.6757L232.347 65.0957H231.822L231.507 64.627C231.396 64.4565 231.315 64.353 231.278 64.3104C231.235 64.2678 231.192 64.2373 231.142 64.2191C231.099 64.2069 231.019 64.1947 230.92 64.1947H230.833V65.0897H230.395L230.401 65.0957ZM230.839 63.8598H231.167C231.377 63.8598 231.507 63.8477 231.563 63.8355C231.612 63.8172 231.655 63.7868 231.686 63.7442C231.717 63.7016 231.729 63.6468 231.729 63.5859C231.729 63.5128 231.711 63.458 231.674 63.4154C231.637 63.3728 231.575 63.3424 231.507 63.3302C231.47 63.3302 231.365 63.3302 231.186 63.3241H230.846V63.8659L230.839 63.8598Z" fill="#FF77A8"></path><path d="M0.00617992 70.1306V54.3867H3.18877L6.97079 65.5341C7.31686 66.5752 7.57641 67.3484 7.73091 67.8659C7.91012 67.2936 8.19439 66.4534 8.58371 65.3393L12.409 54.3867H15.2517V70.1306H13.2124V56.9498L8.57136 70.1306H6.6618L2.03933 56.7306V70.1306H0H0.00617992Z" fill="#FF77A8"></path><path d="M20.2637 70.1306L26.4002 54.3867H28.6805L35.2187 70.1306H32.8086L30.9423 65.3636H24.262L22.5069 70.1306H20.2637ZM24.8738 63.665H30.2935L28.6249 59.3059C28.1182 57.9787 27.7412 56.895 27.494 56.0426C27.2901 57.0533 27.0058 58.0578 26.635 59.0502L24.88 63.6711L24.8738 63.665Z" fill="#FF77A8"></path><path d="M40.292 70.1306V54.3867H47.3802C48.8016 54.3867 49.8892 54.5267 50.6308 54.8128C51.3723 55.099 51.9656 55.5982 52.4105 56.3105C52.8555 57.0289 53.078 57.8204 53.078 58.6849C53.078 59.799 52.7133 60.7427 51.978 61.5098C51.2426 62.2769 50.1117 62.764 48.5791 62.971C49.1414 63.2388 49.5617 63.4945 49.8521 63.7563C50.4701 64.3165 51.0572 65.0105 51.6072 65.8507L54.3881 70.1367H51.7308L49.6173 66.8613C48.9993 65.9176 48.4926 65.1931 48.0909 64.6939C47.6892 64.1947 47.3308 63.8416 47.0156 63.6407C46.7004 63.4398 46.3791 63.2997 46.0515 63.2206C45.8105 63.1719 45.4212 63.1475 44.8712 63.1475H42.4178V70.1367H40.3043L40.292 70.1306ZM42.4055 61.3333H46.9538C47.9178 61.3333 48.678 61.2358 49.2218 61.041C49.7656 60.8462 50.1796 60.5296 50.4639 60.0974C50.7482 59.6651 50.8903 59.1963 50.8903 58.6849C50.8903 57.9421 50.6184 57.3272 50.0684 56.8463C49.5184 56.3653 48.6532 56.1279 47.4667 56.1279H42.4055V61.3393V61.3333Z" fill="#FF77A8"></path><path d="M71.1349 64.6087L73.2484 65.1323C72.8034 66.8431 72.0063 68.1459 70.8568 69.047C69.7074 69.948 68.2984 70.3925 66.6298 70.3925C64.9613 70.3925 63.5091 70.0455 62.4276 69.3575C61.3461 68.6695 60.5242 67.665 59.9619 66.356C59.3995 65.0471 59.1152 63.6407 59.1152 62.1369C59.1152 60.4992 59.4304 59.0685 60.0669 57.8448C60.7034 56.6271 61.6057 55.6957 62.7798 55.0625C63.954 54.4293 65.2456 54.1127 66.6546 54.1127C68.2551 54.1127 69.5961 54.5145 70.69 55.3182C71.7776 56.1218 72.5377 57.2481 72.9703 58.7032L70.8877 59.1842C70.5169 58.0396 69.9793 57.2055 69.2748 56.6819C68.5703 56.1584 67.6804 55.8966 66.6175 55.8966C65.3877 55.8966 64.3619 56.1888 63.54 56.7672C62.7119 57.3455 62.1371 58.1248 61.8034 59.105C61.4697 60.0852 61.3029 61.0898 61.3029 62.1308C61.3029 63.4702 61.5006 64.6392 61.8961 65.6376C62.2916 66.6361 62.9096 67.3849 63.7439 67.8781C64.5782 68.3712 65.4866 68.6208 66.4568 68.6208C67.6433 68.6208 68.6445 68.286 69.4664 67.6102C70.2883 66.9405 70.8445 65.9359 71.1349 64.6148V64.6087Z" fill="#FF77A8"></path><path d="M79.2432 70.1306V54.3867H90.7994V56.2435H81.3566V61.0654H90.1999V62.9101H81.3566V68.2677H91.1701V70.1246H79.2432V70.1306Z" fill="#FF77A8"></path><path d="M97.3564 70.1306V54.3867H99.4699V68.2738H107.343V70.1306H97.3564Z" fill="#FF77A8"></path><path d="M111.452 70.1306L117.589 54.3867H119.869L126.407 70.1306H123.997L122.131 65.3636H115.45L113.695 70.1306H111.452ZM116.062 63.665H121.482L119.813 59.3059C119.307 57.9787 118.93 56.895 118.682 56.0426C118.479 57.0533 118.194 58.0578 117.824 59.0502L116.068 63.6711L116.062 63.665Z" fill="#FF77A8"></path><path d="M139.682 70.1306V54.3867H141.795V62.1917L149.73 54.3867H152.597L145.892 60.7671L152.894 70.1306H150.101L144.409 62.1612L141.795 64.6757V70.1306H139.682Z" fill="#FF77A8"></path><path d="M157.368 62.4657C157.368 59.8539 158.079 57.8082 159.506 56.3288C160.928 54.8494 162.769 54.1127 165.025 54.1127C166.502 54.1127 167.831 54.4598 169.017 55.1538C170.204 55.8479 171.106 56.8159 171.724 58.0579C172.348 59.2998 172.657 60.7062 172.657 62.283C172.657 63.8599 172.329 65.3089 171.674 66.5691C171.019 67.8294 170.092 68.7852 168.893 69.4305C167.695 70.0759 166.403 70.4047 165.013 70.4047C163.511 70.4047 162.164 70.0455 160.977 69.3331C159.791 68.6147 158.895 67.6406 158.283 66.3986C157.671 65.1627 157.368 63.8477 157.368 62.4657ZM159.543 62.4961C159.543 64.3956 160.063 65.8872 161.095 66.9831C162.133 68.0729 163.431 68.6208 164.994 68.6208C166.557 68.6208 167.898 68.0668 168.924 66.9648C169.95 65.8629 170.469 64.2982 170.469 62.2709C170.469 60.9924 170.247 59.8721 169.808 58.9163C169.369 57.9605 168.727 57.2177 167.88 56.6941C167.033 56.1705 166.082 55.9026 165.031 55.9026C163.536 55.9026 162.244 56.408 161.169 57.4247C160.087 58.4353 159.55 60.1278 159.55 62.4961H159.543Z" fill="#FF77A8"></path><path d="M189.213 54.3867H191.326V63.4824C191.326 65.0653 191.147 66.3195 190.782 67.2509C190.418 68.1824 189.763 68.9374 188.817 69.5218C187.872 70.1063 186.623 70.3985 185.085 70.3985C183.546 70.3985 182.365 70.1428 181.414 69.6375C180.462 69.1261 179.782 68.3955 179.374 67.4275C178.967 66.4595 178.763 65.1505 178.763 63.4824V54.3867H180.876V63.4702C180.876 64.84 181.006 65.8446 181.265 66.496C181.525 67.1414 181.97 67.6406 182.594 67.9937C183.224 68.3468 183.991 68.5173 184.899 68.5173C186.457 68.5173 187.563 68.1703 188.224 67.4762C188.885 66.7822 189.219 65.4488 189.219 63.4702V54.3867H189.213Z" fill="#FF77A8"></path><path d="M198.229 70.1306V54.3867H205.317C206.738 54.3867 207.826 54.5267 208.567 54.8128C209.309 55.099 209.902 55.5982 210.347 56.3105C210.792 57.0289 211.008 57.8204 211.008 58.6849C211.008 59.799 210.644 60.7427 209.908 61.5098C209.173 62.2769 208.042 62.764 206.509 62.971C207.066 63.2388 207.492 63.4945 207.782 63.7563C208.4 64.3165 208.988 65.0105 209.538 65.8507L212.318 70.1367H209.661L207.548 66.8613C206.93 65.9176 206.423 65.1931 206.021 64.6939C205.62 64.1947 205.261 63.8416 204.946 63.6407C204.631 63.4398 204.309 63.2997 203.982 63.2206C203.741 63.1719 203.352 63.1475 202.802 63.1475H200.348V70.1367H198.235L198.229 70.1306ZM200.342 61.3333H204.89C205.854 61.3333 206.614 61.2358 207.158 61.041C207.702 60.8462 208.116 60.5296 208.4 60.0974C208.685 59.6651 208.827 59.1963 208.827 58.6849C208.827 57.9421 208.555 57.3272 208.005 56.8463C207.455 56.3653 206.59 56.1279 205.403 56.1279H200.348V61.3393L200.342 61.3333Z" fill="#FF77A8"></path><path d="M221.768 70.1306V63.4641L215.606 54.3867H218.177L221.329 59.1354C221.91 60.0243 222.454 60.9132 222.954 61.796C223.436 60.974 224.017 60.0426 224.697 59.0137L227.793 54.3867H230.259L223.881 63.4641V70.1306H221.768Z" fill="#FF77A8"></path></svg>
